SplineFontDB: 2.0
FontName: caeciliae-base
FullName: caeciliae
FamilyName: caeciliae
Weight: Medium
Copyright: greciliae font, adapted with fontforge by Elie Roux\nCopyright (C) 2007 Matthew Spencer\nwith Reserved Font Name Caeciliae\n\nThis Font Software is licensed under the SIL Open Font License, Version 1.1.\n\nThis license is available with a FAQ at: http://scripts.sil.org/OFL\n
UComments: "2007-4-12: Created." 
Version: 1.2
ItalicAngle: 0
UnderlinePosition: -204
UnderlineWidth: 102
Ascent: 800
Descent: 200
NeedsXUIDChange: 1
XUID: [1021 341 828717519 8032907]
OS2Version: 0
OS2_WeightWidthSlopeOnly: 0
OS2_UseTypoMetrics: 1
CreationTime: 1176402534
ModificationTime: 1208253571
OS2TypoAscent: 0
OS2TypoAOffset: 1
OS2TypoDescent: 0
OS2TypoDOffset: 1
OS2TypoLinegap: 0
OS2WinAscent: 0
OS2WinAOffset: 1
OS2WinDescent: 0
OS2WinDOffset: 1
HheadAscent: 0
HheadAOffset: 1
HheadDescent: 0
HheadDOffset: 1
OS2Vendor: 'PfEd'
DEI: 0
Encoding: Custom
UnicodeInterp: none
NameList: Adobe Glyph List
DisplaySize: -96
AntiAlias: 1
FitToEm: 1
WinInfo: 0 12 6
TeXData: 1 0 0 346030 173015 115343 0 1048576 115343 783286 444596 497025 792723 393216 433062 380633 303038 157286 324010 404750 52429 2506097 1059062 262144
BeginChars: 341 341

StartChar: _0017
Encoding: 0 66 0
Width: 164
VWidth: 2048
Flags: HW
HStem: -409 15 -94 15 221 15 536 15
Fore
63.5 246 m 4
 106.5 246 128 233.667 128 209 c 6
 128 88 l 5
 114 102 92.667 109 64 109 c 4
 34.667 109 14 102 0 88 c 5
 0 209 l 6
 0 233.667 20.5 246 63.5 246 c 4
EndSplineSet
EndChar

StartChar: _0019
Encoding: 1 67 1
Width: 164
VWidth: 2048
Flags: HW
HStem: -409 15 -94 15 221 15 536 15
Fore
64 264 m 1
 128 167 l 1
 64 71 l 1
 0 167 l 1
 64 264 l 1
EndSplineSet
EndChar

StartChar: _0020
Encoding: 2 68 2
Width: 164
VWidth: 2048
Flags: HW
HStem: -409 15 -94 15 221 15 536 15
Fore
65 15 m 1
 70.333 -1.66699 80.667 -19.667 96 -39 c 2
 127 -79 l 1
 108 -114 l 2
 87.333 -150 63.333 -171.667 36 -179 c 1
 42 -174.333 45 -168 45 -160 c 0
 45 -148.667 38.5137 -133.771 26 -115 c 2
 2 -79 l 1
 65 15 l 1
EndSplineSet
EndChar

StartChar: _0026
Encoding: 3 69 3
Width: 164
VWidth: 2048
Flags: HW
HStem: -409 15 -94 15 221 15 536 15
Fore
0 489 m 6
 0 599 l 5
 5 580 16 559 28 559 c 4
 40 559 44 581.5 46 619 c 5
 54 591.5 59.333 576 74 576 c 4
 85.333 576 87.5 608.5 90 631 c 5
 96 606 100.333 587 109 587 c 4
 117 587 124 618.5 128 648 c 5
 128 520 l 6
 128 505.938 124 486 116 486 c 4
 107.333 486 104.5 492.5 99 509 c 5
 97 488 88.667 467 76 467 c 4
 62.667 467 55 476.5 44 495 c 5
 39 473.5 32.333 456 21 456 c 4
 7 456 0 473.745 0 489 c 6
EndSplineSet
EndChar

StartChar: _0028
Encoding: 4 70 4
Width: 164
VWidth: 2048
Flags: HW
HStem: -409 15 -94 15 221 15 536 15
Fore
30 85 m 0
 6 85 0 103.6 0 124 c 2
 0 260 l 1
 0 242.9 6 221 30 221 c 0
 53.3789 221 74.4395 246 98 246 c 0
 116 246 128 236.7 128 207 c 2
 128 71 l 1
 128 90.5928 120.782 111 98 111 c 0
 75.9004 111 50.4004 85 30 85 c 0
EndSplineSet
EndChar

StartChar: _0027
Encoding: 5 71 5
Width: 164
VWidth: 2048
Flags: HW
HStem: -409 15 -94 15 221 15 536 15
Fore
98 472 m 4
 120.47 472 128 491.15 128 511 c 5
 128 375 l 6
 128 354.6 122 336 98 336 c 4
 81.7969 336 47.2656 362 30 362 c 4
 7.14258 362 0 341.512 0 322 c 5
 0 458 l 6
 0 487.7 12 497 30 497 c 4
 47.292 497 81.7832 472 98 472 c 4
EndSplineSet
EndChar

StartChar: _0006
Encoding: 6 72 6
Width: 164
VWidth: 2048
Flags: HW
HStem: -409 15 -94 15 221 15 536 15
Fore
37 262 m 1
 84.9004 262 126 229.001 126 207.001 c 0
 126 120.334 125.667 77.001 125 77.001 c 0
 75.667 77.001 36 92.668 6 124.001 c 1
 3 200.002 1.5 270.565 1.5 335.691 c 0
 1.5 357.398 1.66699 378.502 2 399.001 c 0
 2 413.001 5.33301 420.001 12 420.001 c 0
 17.333 420.001 20 413.334 20 400.001 c 2
 18 172.001 l 1
 45.333 141.334 71.333 126.001 96 126.001 c 0
 108 126.001 114 132.001 114 144.001 c 0
 114 165.601 106.579 176.65 71 198 c 2
 37 217 l 1
 37 262 l 1
EndSplineSet
EndChar

StartChar: queue
Encoding: 7 153 7
Width: 22
VWidth: 2048
Flags: HW
Validated: 1
HStem: -409 15 -94 15 221 15 536 15
Fore
0 -165.5 m 9
 0 -5 l 29
 22 -5 l 25
 22 -157.5 l 17
 17.5928 -163.278 8.15723 -163.709 0 -165.5 c 9
EndSplineSet
EndChar

StartChar: _0032
Encoding: 8 74 8
Width: 82
VWidth: 2048
Flags: HW
HStem: -409 15 -94 15 221 15 536 15
Fore
44.7998 109.8 m 5
 89.5996 41.9004 l 5
 44.7998 -25.2998 l 5
 0 41.9004 l 5
 44.7998 109.8 l 5
EndSplineSet
EndChar

StartChar: _0011
Encoding: 9 75 9
Width: 19
VWidth: 2048
Flags: HW
Validated: 1
HStem: -409 15 -94 15 221 15 536 15
Fore
0 550.999 m 29
 19 551 l 25
 19 -408.997 l 25
 0 -409.002 l 25
 0 550.999 l 29
EndSplineSet
EndChar

StartChar: _0008
Encoding: 10 76 10
Width: 152
VWidth: 2048
Flags: HW
HStem: -409 15 -94 15 221 15 536 15
Fore
12 883 m 4
 12 917.4 34.0254 926 59 926 c 4
 79.4463 926 127 907.859 127 831 c 4
 127 761.667 86 717.667 4 699 c 5
 2.24316 700.757 0 708.497 0 711 c 4
 0 712.333 0.333008 713.333 1 714 c 5
 56.333 738.667 84 768 84 802 c 4
 84 849.2 54.9863 856.591 30 861 c 4
 18 862.333 12 869.667 12 883 c 4
EndSplineSet
EndChar

StartChar: _0001
Encoding: 11 77 11
Width: 140
VWidth: 2048
Flags: HW
HStem: -409 15 -94 15 221 15 536 15
Fore
83 79 m 4
 33.2002 79 0 113.8 0 166 c 6
 0 417 l 6
 0 469.479 32.9502 503 83 503 c 4
 119 503 128 476.6 128 459 c 6
 128 321 l 5
 120 328 l 6
 106.964 339.406 85.1416 350 63 350 c 4
 33.1074 350 8 324.946 8 292 c 4
 8 259.091 33.1621 233 63 233 c 4
 85.7998 233 107.173 242.775 120 254 c 6
 128 262 l 5
 128 123 l 6
 128 96.5996 110 79 83 79 c 4
EndSplineSet
EndChar

StartChar: _0023
Encoding: 12 78 12
Width: 164
VWidth: 2048
Flags: HW
HStem: -409 15 -94 15 221 15 536 15
Fore
9 -78 m 5
 13 -78 14 -76.7998 14 -42 c 6
 14 91 l 5
 26.667 102.333 43.333 108 64 108 c 4
 94 108 114.667 101.333 128 88 c 5
 128 209 l 6
 128 233.667 107.5 246 64.5 246 c 4
 21.5 246 0 233.667 0 209 c 6
 0 -62 l 6
 0 -71.333 3 -76.667 9 -78 c 5
EndSplineSet
EndChar

StartChar: _0025
Encoding: 13 79 13
Width: 164
VWidth: 2048
Flags: HW
HStem: -409 15 -94 15 221 15 536 15
Fore
119 -78 m 5
 115 -78 114 -76.7998 114 -42 c 6
 114 91 l 5
 101.333 102.333 84.667 108 64 108 c 4
 34 108 13.333 101.333 0 88 c 5
 0 209 l 6
 0 233.667 20.5 246 63.5 246 c 4
 106.5 246 128 233.667 128 209 c 6
 128 -62 l 6
 128 -71.333 125 -76.667 119 -78 c 5
EndSplineSet
EndChar

StartChar: _0009
Encoding: 14 73 14
AltUni2: 000050.ffffffff.0
Width: 19
VWidth: 2048
Flags: HW
Validated: 1
HStem: -409 15 -94 15 221 15 536 15
Fore
0 359.128 m 9
 0 719.984 l 29
 18.999 720.021 l 25
 19 352.431 l 17
 6.04348 352.565 2.43478 355.609 0 359.128 c 9
EndSplineSet
EndChar

StartChar: _0010
Encoding: 15 81 15
Width: 19
VWidth: 2048
Flags: HW
Validated: 1
HStem: -409 15 -94 15 221 15 536 15
Fore
0 -296.375 m 9
 0 383.125 l 21
 3.87305 385.802 10.75 386.375 19 386.5 c 9
 19 -293.375 l 17
 14.875 -293.5 5 -293.375 0 -296.375 c 9
EndSplineSet
EndChar

StartChar: _0024
Encoding: 16 83 16
Width: 164
VWidth: 2048
Flags: HW
HStem: -409 15 -94 15 221 15 536 15
Fore
119 -47 m 5
 115 -47 114 -45.7998 114 -11 c 6
 114 216 l 5
 101.333 227.333 84.667 233 64 233 c 4
 34 233 13.333 226.333 0 213 c 5
 0 334 l 6
 0 358.667 20.5 371 63.5 371 c 4
 106.5 371 128 358.667 128 334 c 6
 128 -31 l 6
 128 -39.667 125 -45 119 -47 c 5
EndSplineSet
EndChar

StartChar: pesdeminutus
Encoding: 17 84 17
Width: 164
VWidth: 2048
Flags: HW
HStem: -409 15 -94 15 221 15 536 15
Fore
128 -126 m 1
 107.358 -169.005 36.2627 -170.002 27.7803 -170.002 c 2
 27 -170 l 2
 9 -170 -0 -161.333 -0 -144 c 2
 -0 -10 l 1
 5.33301 -19.333 16.333 -24 33 -24 c 0
 54.5918 -24 117.73 -16.082 128 25 c 1
 128 -126 l 1
EndSplineSet
EndChar

StartChar: auctusd1
Encoding: 18 85 18
Width: 164
VWidth: 2048
Flags: HW
HStem: -409 15 -94 15 221 15 536 15
Fore
128 -188 m 5
 117.328 -146.646 53.7803 -139 33.001 -139 c 4
 16.334 -139 5.33398 -144 0.000976562 -154 c 5
 0.000976562 -19 l 6
 0.000976562 -2.33301 9.00098 6 27.001 6 c 4
 27.1377 6 27.3652 6.00098 27.6777 6.00098 c 4
 36.21 6.00098 108.044 5.23633 128 -38 c 5
 128 -188 l 5
EndSplineSet
EndChar

StartChar: auctusa1
Encoding: 19 86 19
Width: 164
VWidth: 2048
Flags: HW
HStem: -409 15 -94 15 221 15 536 15
Fore
128 749 m 5
 107.358 705.995 36.2627 704.998 27.7803 704.998 c 6
 27 705 l 6
 9 705 -0 713.667 -0 731 c 6
 -0 865 l 5
 5.33301 855.667 16.333 851 33 851 c 4
 54.5918 851 117.73 858.918 128 900 c 5
 128 749 l 5
EndSplineSet
EndChar

StartChar: mdeminutus
Encoding: 20 87 20
Width: 197
VWidth: 2048
Flags: HW
Validated: 33
HStem: -409 15 -94 15 221 15 536 15
Fore
197 90.001 m 13
 197 -69.999 l 25
 188.42 -69.999 175 -69.999 175 -69.999 c 0
 152.667 -22.001 88.0029 -6.33105 55.334 -5.33301 c 0
 46.6738 -5.06836 29 -8.5 21.9971 -21.5 c 0
 21.9971 -21.5 8.5791 -21.5 0 -21.5 c 25
 0 142.666 l 1
 11 147.666 16.1455 152.186 37.999 152.664 c 0
 106.499 154.164 167.02 124.329 197 90.001 c 13
EndSplineSet
EndChar

StartChar: _0007
Encoding: 21 88 21
Width: 201
VWidth: 2048
Flags: HW
HStem: -409 15 -94 15 221 15 536 15
Fore
17 628 m 1
 20.333 629.333 23.832 630 27.499 630 c 0
 31.166 630 34.666 629.333 37.999 628 c 1
 37.999 554 l 1
 36.999 505 l 1
 61.999 509 l 2
 75.999 511.667 87.999 513 97.999 513 c 0
 101.332 513 103.332 511.333 103.999 508 c 2
 106.999 212 l 1
 104.332 208.667 101.332 207 97.999 207 c 0
 96.8516 207 88.2393 209.88 86 211 c 1
 86.667 211.667 87 239 87 293 c 2
 87 331 l 1
 27 321 l 1
 22.333 321.667 19.667 324.333 19 329 c 2
 19 438 l 1
 18 539 l 1
 17 611 l 1
 17 628 l 1
88.999 468 m 1
 36.999 460 l 2
 36.332 460 35.999 429 35.999 367 c 1
 88.999 376 l 1
 88.999 468 l 1
EndSplineSet
EndChar

StartChar: _0002
Encoding: 22 89 22
Width: 321
VWidth: 2048
Flags: HW
HStem: -409 15 -94 15 221 15 536 15
Fore
206 340 m 4
 158.268 340 125.999 374.026 125.999 424 c 6
 125.999 661 l 6
 125.999 711.098 158.265 744 205.999 744 c 4
 233.093 744 247.999 728.992 247.999 703 c 6
 247.999 571 l 5
 235.471 581.738 217.359 598 188 598 c 4
 155.6 598 134 572.15 134 543.5 c 4
 134 514.288 155.444 487 188 487 c 4
 224.201 487 247.994 513.997 248 514 c 5
 248 382 l 6
 248 356.569 232.028 340 206 340 c 4
102.999 317 m 4
 99.999 317 97.999 318.1 97.999 325 c 6
 97.999 471 l 5
 87.332 481.667 72.666 487 53.999 487 c 4
 31.332 487 13.332 482 -0.000976562 472 c 5
 -0.000976562 584 l 6
 -0.000976562 607.333 18.166 619 54.499 619 c 4
 90.832 619 108.999 607.333 108.999 584 c 6
 108.999 336 l 6
 108.999 324 106.999 317.667 102.999 317 c 4
EndSplineSet
EndChar

StartChar: _0063
Encoding: 23 90 23
Width: 85
VWidth: 2048
Flags: HW
HStem: -409 15 -94 15 221 15 536 15
Fore
52 719 m 5
 29.9268 719 21.5566 716.557 8 703 c 5
 8 841 l 6
 8 863.8 34.501 875.596 64 879 c 5
 64 471 l 6
 64 458.333 61.667 450 57 446 c 5
 53.667 446 52 451.333 52 462 c 6
 52 719 l 5
EndSplineSet
EndChar

StartChar: _0064
Encoding: 24 91 24
Width: 85
VWidth: 2048
Flags: HW
HStem: -409 15 -94 15 221 15 536 15
Fore
52 846 m 1
 29.9268 846 21.5566 843.557 8 830 c 1
 8 968 l 2
 8 990.8 34.501 1002.6 64 1006 c 1
 64 686 l 2
 64 673.333 62 665 58 661 c 1
 57.5791 660.859 57.1807 660.789 56.8037 660.789 c 0
 53.6016 660.789 52 665.859 52 676 c 2
 52 846 l 1
EndSplineSet
EndChar

StartChar: _0060
Encoding: 25 92 25
Width: 85
VWidth: 2048
Flags: HW
HStem: 854.5 15 539.5 15 224.5 15 -90.5 15
Fore
64 -41 m 5
 39.8096 -37.2783 8.00098 -28.4639 8.00098 -2.99902 c 6
 8.00098 135.001 l 5
 21.6445 122.597 29.7412 119.001 52.001 119.001 c 5
 52.001 371.001 l 6
 52.001 385.668 54.001 393.001 58.001 393.001 c 4
 58.2627 393.024 58.5176 393.036 58.7656 393.036 c 4
 63.2969 393.036 65.5625 389.071 65.5625 381.141 c 4
 65.5625 377.339 65.042 372.625 64 367 c 5
 64 -41 l 5
EndSplineSet
EndChar

StartChar: _0061
Encoding: 26 93 26
Width: 85
VWidth: 2048
Flags: HW
HStem: 957.5 15 642.5 15 327.5 15 12.5 15
Fore
64 -166 m 1
 39.8096 -162.277 8.00098 -153.465 8.00098 -128 c 2
 8.00098 10 l 1
 21.6445 -2.4043 29.7402 -6 52 -6 c 1
 52 164 l 2
 52 174.039 53.7715 179.059 57.3145 179.059 c 0
 57.5361 179.059 57.7646 179.039 58 179 c 0
 62 178.333 64 170 64 154 c 2
 64 -166 l 1
EndSplineSet
EndChar

StartChar: base2
Encoding: 27 94 27
Width: 164
VWidth: 2048
Flags: HW
HStem: -409 15 -94 15 221 15 536 15
Fore
105 335 m 5
 105 366.94 89.6318 377 58 377 c 4
 34.667 377 15.333 371.667 0 361 c 5
 0 458 l 6
 0 483.333 19.333 496 58 496 c 4
 83.5 496 117 488.4 117 458 c 6
 117 335 l 5
 105 335 l 5
EndSplineSet
EndChar

StartChar: base4
Encoding: 28 95 28
Width: 164
VWidth: 2048
Flags: HW
HStem: -409 15 -94 15 221 15 536 15
Fore
63.5 246 m 4
 106.5 246 128 233.667 128 209 c 6
 128 88 l 5
 114 102 92.667 109 64 109 c 4
 34.667 109 14 102 0 88 c 5
 0 209 l 6
 0 233.667 20.5 246 63.5 246 c 4
EndSplineSet
EndChar

StartChar: base7
Encoding: 29 96 29
Width: 164
VWidth: 2048
Flags: HW
HStem: -409 15 -94 15 221 15 536 15
Fore
63.5 246 m 4
 106.5 246 128 233.667 128 209 c 6
 128 88 l 5
 114 102 92.667 109 64 109 c 4
 34.667 109 14 102 0 88 c 5
 0 209 l 6
 0 233.667 20.5 246 63.5 246 c 4
EndSplineSet
EndChar

StartChar: base5
Encoding: 30 97 30
Width: 164
VWidth: 2048
Flags: HW
HStem: -409 15 -94 15 221 15 536 15
Fore
63.5 246 m 4
 106.5 246 128 233.667 128 209 c 6
 128 88 l 5
 114 102 92.667 109 64 109 c 4
 34.667 109 14 102 0 88 c 5
 0 209 l 6
 0 233.667 20.5 246 63.5 246 c 4
EndSplineSet
EndChar

StartChar: base3
Encoding: 31 98 31
Width: 164
VWidth: 2048
Flags: HW
HStem: -409 15 -94 15 221 15 536 15
Fore
63.5 246 m 4
 106.5 246 128 233.667 128 209 c 6
 128 88 l 5
 114 102 92.667 109 64 109 c 4
 34.667 109 14 102 0 88 c 5
 0 209 l 6
 0 233.667 20.5 246 63.5 246 c 4
EndSplineSet
EndChar

StartChar: base6
Encoding: 32 99 32
Width: 164
VWidth: 2048
Flags: HW
HStem: -409 15 -94 15 221 15 536 15
Fore
63.5 246 m 4
 106.5 246 128 233.667 128 209 c 6
 128 88 l 5
 114 102 92.667 109 64 109 c 4
 34.667 109 14 102 0 88 c 5
 0 209 l 6
 0 233.667 20.5 246 63.5 246 c 4
EndSplineSet
EndChar

StartChar: line2
Encoding: 33 100 33
Width: 22
VWidth: 2048
Flags: HW
Validated: 1
HStem: -409 15 -94 15 221 15 536 15
Fore
0 -11.5 m 25
 0 146 l 25
 22 146 l 25
 22 -11.5 l 29
 0 -11.5 l 25
EndSplineSet
EndChar

StartChar: line3
Encoding: 34 101 34
Width: 22
VWidth: 2048
Flags: HW
Validated: 1
HStem: -420.5 15 -105.5 15 209.5 15 524.5 15
Fore
0 -11.5 m 25
 0 303.5 l 25
 22 303.5 l 29
 22 -11.5 l 25
 0 -11.5 l 25
EndSplineSet
EndChar

StartChar: line4
Encoding: 35 102 35
Width: 22
VWidth: 2048
Flags: HW
Validated: 1
HStem: -420.5 15 -105.5 15 209.5 15 524.5 15
Fore
0 -11.5 m 25
 0 453.5 l 25
 22 453.5 l 29
 22 -11.5 l 25
 0 -11.5 l 25
EndSplineSet
EndChar

StartChar: line5
Encoding: 36 103 36
Width: 22
VWidth: 2048
Flags: HW
Validated: 1
HStem: -420.5 15 -105.5 15 209.5 15 524.5 15
Fore
0 -11.5 m 25
 0 619.5 l 25
 22 619.5 l 29
 22 -11.5 l 25
 0 -11.5 l 25
EndSplineSet
EndChar

StartChar: vsbase
Encoding: 37 104 37
Width: 164
VWidth: 2048
Flags: HW
HStem: -409 15 -94 15 221 15 536 15
Fore
9 -78 m 5
 13 -78 14 -76.7998 14 -42 c 6
 14 91 l 5
 26.667 102.333 43.333 108 64 108 c 4
 94 108 114.667 101.333 128 88 c 5
 128 209 l 6
 128 233.667 107.5 246 64.5 246 c 4
 21.5 246 0 233.667 0 209 c 6
 0 -62 l 6
 0 -71.333 3 -76.667 9 -78 c 5
EndSplineSet
EndChar

StartChar: vbase
Encoding: 38 -1 38
Width: 164
VWidth: 2048
Flags: HW
HStem: -409 15 -94 15 221 15 536 15
Fore
119 -78 m 5
 115 -78 114 -76.7998 114 -42 c 6
 114 91 l 5
 101.333 102.333 84.667 108 64 108 c 4
 34 108 13.333 101.333 0 88 c 5
 0 209 l 6
 0 233.667 20.5 246 63.5 246 c 4
 106.5 246 128 233.667 128 209 c 6
 128 -62 l 6
 128 -71.333 125 -76.667 119 -78 c 5
EndSplineSet
EndChar

StartChar: vlbase
Encoding: 39 -1 39
Width: 164
VWidth: 2048
Flags: HW
HStem: -409 15 -94 15 221 15 536 15
Fore
9 -47 m 5
 13 -47 14 -45.7998 14 -11 c 6
 14 216 l 5
 26.667 227.333 43.333 233 64 233 c 4
 94 233 114.667 226.333 128 213 c 5
 128 334 l 6
 128 358.667 107.5 371 64.5 371 c 4
 21.5 371 0 358.667 0 334 c 6
 0 -31 l 6
 0 -39.667 3 -45 9 -47 c 5
EndSplineSet
EndChar

StartChar: qbase
Encoding: 40 -1 40
Width: 164
VWidth: 2048
Flags: HW
HStem: -409 15 -94 15 221 15 536 15
Fore
0 489 m 6
 0 599 l 5
 5 580 16 559 28 559 c 4
 40 559 44 581.5 46 619 c 5
 54 591.5 59.333 576 74 576 c 4
 85.333 576 87.5 608.5 90 631 c 5
 96 606 100.333 587 109 587 c 4
 117 587 124 618.5 128 648 c 5
 128 520 l 6
 128 505.938 124 486 116 486 c 4
 107.333 486 104.5 492.5 99 509 c 5
 97 488 88.667 467 76 467 c 4
 62.667 467 55 476.5 44 495 c 5
 39 473.5 32.333 456 21 456 c 4
 7 456 0 473.745 0 489 c 6
EndSplineSet
EndChar

StartChar: obase
Encoding: 41 -1 41
Width: 164
VWidth: 2048
Flags: HW
HStem: -409 15 -94 15 221 15 536 15
Fore
98 472 m 4
 120.47 472 128 491.15 128 511 c 5
 128 375 l 6
 128 354.6 122 336 98 336 c 4
 81.7969 336 47.2656 362 30 362 c 4
 7.14258 362 0 341.512 0 322 c 5
 0 458 l 6
 0 487.7 12 497 30 497 c 4
 47.292 497 81.7832 472 98 472 c 4
EndSplineSet
EndChar

StartChar: pbase
Encoding: 42 -1 42
Width: 164
VWidth: 2048
Flags: HW
HStem: -409 15 -94 15 221 15 536 15
Fore
61 97 m 0
 43.3486 97 30.7471 96.8105 21.7705 96.8105 c 0
 2.72559 96.8105 0 97.665 0 103 c 2
 0 208 l 2
 0 212.667 1.66699 215 5 215 c 2
 8 215 l 2
 11.333 214.333 27.333 214 58 214 c 0
 67.542 214 75.7871 213.854 82.8213 213.854 c 0
 105.966 213.854 116 215.435 116 229 c 1
 128 229 l 1
 128 104 l 2
 128 97.7607 121.351 96.8359 98.75 96.8359 c 0
 89.2295 96.8359 76.8779 97 61 97 c 0
EndSplineSet
EndChar

StartChar: idebilis
Encoding: 43 -1 43
Width: 163
VWidth: 2048
Flags: HW
HStem: -409 15 -94 15 221 15 536 15
Fore
41 111 m 4
 18.0859 111 0 129.549 0 149 c 6
 0 216 l 5
 8 206.667 18.333 202 33 202 c 4
 45.667 202 52 210 52 226 c 6
 52 268 l 5
 64 268 l 5
 64 130 l 6
 64 118.6 54.7998 111 41 111 c 4
EndSplineSet
EndChar

StartChar: deminutus
Encoding: 44 -1 44
Width: 163
VWidth: 2048
Flags: HW
HStem: -409 15 -94 15 221 15 536 15
Fore
41 111 m 4
 18.0859 111 0 129.549 0 149 c 6
 0 216 l 5
 8 206.667 18.333 202 33 202 c 4
 45.667 202 52 210 52 226 c 6
 52 268 l 5
 64 268 l 5
 64 130 l 6
 64 118.6 54.7998 111 41 111 c 4
EndSplineSet
EndChar

StartChar: rdeminutus
Encoding: 45 -1 45
Width: 163
VWidth: 2048
Flags: HW
HStem: 545.728 15 230.728 15 -84.2722 15 -399.272 15
Fore
41 600 m 4
 54.7998 600 64 592.4 64 581 c 6
 64 444 l 5
 52 444 l 5
 52 486 l 6
 52 501.333 45.667 509 33 509 c 4
 18.333 509 8 504.333 0 495 c 5
 0 563 l 6
 0 580.82 17.7783 600 41 600 c 4
EndSplineSet
EndChar

StartChar: auctusd2
Encoding: 46 -1 46
Width: 164
VWidth: 2048
Flags: HW
HStem: -409 15 -94 15 221 15 536 15
Fore
128 -188 m 5
 117.328 -146.646 53.7803 -139 33.001 -139 c 4
 16.334 -139 5.33398 -144 0.000976562 -154 c 5
 0.000976562 -19 l 6
 0.000976562 -2.33301 9.00098 6 27.001 6 c 4
 27.1377 6 27.3652 6.00098 27.6777 6.00098 c 4
 36.21 6.00098 108.044 5.23633 128 -38 c 5
 128 -188 l 5
EndSplineSet
EndChar

StartChar: auctusa2
Encoding: 47 -1 47
Width: 164
VWidth: 2048
Flags: HW
HStem: -409 15 -94 15 221 15 536 15
Fore
128 749 m 5
 107.358 705.995 36.2627 704.998 27.7803 704.998 c 6
 27 705 l 6
 9 705 -0 713.667 -0 731 c 6
 -0 865 l 5
 5.33301 855.667 16.333 851 33 851 c 4
 54.5918 851 117.73 858.918 128 900 c 5
 128 749 l 5
EndSplineSet
EndChar

StartChar: porrectus1
Encoding: 48 -1 48
Width: 490
VWidth: 2048
Flags: HW
HStem: -409 15 -94 15 221 15 536 15
Fore
363 225 m 4
 243.007 225 115.931 247.17 0 349 c 5
 0 501 l 5
 36.667 465 97.7021 424.733 183 380 c 4
 222.35 359.363 273.333 349 336 349 c 4
 363.333 349 380.333 361.667 387 387 c 5
 387 239 l 6
 387 229.667 379 225 363 225 c 4
EndSplineSet
EndChar

StartChar: porrectus2
Encoding: 49 -1 49
Width: 575
VWidth: 2048
Flags: HW
HStem: -409 15 -94 15 221 15 536 15
Fore
0 501 m 5
 107.646 359.714 289.976 225.893 433 205 c 5
 442 205 l 6
 462.667 205 476.333 217.667 483 243 c 5
 483 96 l 6
 483 86 475.333 81 460 81 c 4
 395.333 81 318.062 109.765 228 167 c 4
 126.07 231.777 50 292.333 0 349 c 5
 0 501 l 5
EndSplineSet
EndChar

StartChar: porrectus3
Encoding: 50 -1 50
Width: 650
VWidth: 2048
Flags: HW
HStem: -409 15 -94 15 221 15 536 15
Fore
460 81 m 4
 397.333 102.333 320.333 152 229 230 c 4
 165.667 282.667 89.333 364 0 474 c 5
 0 626 l 5
 102 500 179.357 408.689 232 352 c 4
 328.836 247.721 433.814 201 449 201 c 4
 465 201 476.333 215 483 243 c 5
 483 97 l 6
 483 85 478.667 79 470 79 c 4
 467.333 79 464 79.667 460 81 c 4
EndSplineSet
EndChar

StartChar: porrectus4
Encoding: 51 -1 51
Width: 740
VWidth: 2048
Flags: HW
HStem: -409 15 -94 15 221 15 536 15
Fore
460 206 m 0
 344.774 260.447 177.83 462.078 0 724 c 1
 0 876 l 1
 47.333 788 124.742 675.726 232 539 c 0
 302.049 449.705 369 380 433 330 c 0
 439.667 325.333 445.667 323 451 323 c 0
 465 323 475.667 338 483 368 c 1
 483 221 l 2
 483 209 479.333 203 472 203 c 0
 468.667 203 464.667 204 460 206 c 0
EndSplineSet
EndChar

StartChar: porrectus5
Encoding: 52 -1 52
Width: 931
VWidth: 2048
Flags: HW
Validated: 33
HStem: -409 15 -94 15 221 15 536 15
Fore
0 -16 m 1
 0 155 l 2
 0 159.739 5.3553 158.627 7 154.75 c 0
 122.5 -117.5 382.5 -591 909 -711 c 1
 909 -668 909 -654.875 909 -612 c 5
 919.125 -612 926.281 -611.9 931 -612 c 1
 931 -841 l 2
 931 -843.229 930.646 -842.992 928.76 -842.591 c 0
 315 -712 70 -240 0 -16 c 1
EndSplineSet
EndChar

StartChar: porrectusflexus1
Encoding: 53 -1 53
Width: 490
VWidth: 2048
Flags: HW
HStem: -409 15 -94 15 221 15 536 15
Fore
363 225 m 4
 243.007 225 115.931 247.17 0 349 c 5
 0 501 l 5
 36.667 465 97.7021 424.733 183 380 c 4
 222.35 359.363 273.333 349 336 349 c 4
 363.333 349 380.333 361.667 387 387 c 5
 387 239 l 6
 387 229.667 379 225 363 225 c 4
EndSplineSet
EndChar

StartChar: porrectusflexus2
Encoding: 54 -1 54
Width: 575
VWidth: 2048
Flags: HW
HStem: -409 15 -94 15 221 15 536 15
Fore
0 501 m 5
 107.646 359.714 289.976 225.893 433 205 c 5
 442 205 l 6
 462.667 205 476.333 217.667 483 243 c 5
 483 96 l 6
 483 86 475.333 81 460 81 c 4
 395.333 81 318.062 109.765 228 167 c 4
 126.07 231.777 50 292.333 0 349 c 5
 0 501 l 5
EndSplineSet
EndChar

StartChar: porrectusflexus3
Encoding: 55 -1 55
Width: 650
VWidth: 2048
Flags: HW
HStem: -409 15 -94 15 221 15 536 15
Fore
460 81 m 4
 397.333 102.333 320.333 152 229 230 c 4
 165.667 282.667 89.333 364 0 474 c 5
 0 626 l 5
 102 500 179.357 408.689 232 352 c 4
 328.836 247.721 433.814 201 449 201 c 4
 465 201 476.333 215 483 243 c 5
 483 97 l 6
 483 85 478.667 79 470 79 c 4
 467.333 79 464 79.667 460 81 c 4
EndSplineSet
EndChar

StartChar: porrectusflexus4
Encoding: 56 -1 56
Width: 670
VWidth: 2048
Flags: HW
HStem: -409 15 -94 15 221 15 536 15
Fore
460 206 m 0
 344.774 260.447 177.83 462.078 0 724 c 1
 0 876 l 1
 47.333 788 124.742 675.726 232 539 c 0
 302.049 449.705 369 380 433 330 c 0
 439.667 325.333 445.667 323 451 323 c 0
 465 323 475.667 338 483 368 c 1
 483 221 l 2
 483 209 479.333 203 472 203 c 0
 468.667 203 464.667 204 460 206 c 0
EndSplineSet
EndChar

StartChar: porrectusflexus5
Encoding: 57 -1 57
Width: 931
VWidth: 2048
Flags: HW
Validated: 33
HStem: -409 15 -94 15 221 15 536 15
Fore
0 -16 m 1
 0 155 l 2
 0 159.739 5.3553 158.627 7 154.75 c 0
 122.5 -117.5 382.5 -525 909 -645 c 1
 909 -602 909 -634.875 909 -592 c 1
 919.125 -592 926.281 -591.9 931 -592 c 1
 931 -775 l 6
 931 -777.229 930.646 -776.992 928.76 -776.591 c 0
 315 -646 70 -240 0 -16 c 1
EndSplineSet
EndChar

StartChar: _1025
Encoding: 58 -1 58
Width: 164
VWidth: 2048
Flags: HW
Validated: 33
HStem: -409 15 -94 15 221 15 536 15
Fore
140.496 158.67 m 0
 135.996 170.67 112.667 181.997 76.667 181.997 c 0
 47.167 181.997 15 177.153 0 166.497 c 1
 0 300.497 l 1
 20 311.497 50.084 316.497 82.667 316.497 c 0
 115.25 316.497 144 308 164 300 c 1
 164 29.833 l 6
 164 12.167 165.667 -6.5 144.336 -11.167 c 1
 120.332 -6.50781 130.664 28.501 113 35.5 c 1
 96.9922 27.4971 110.993 -35.499 83 -39.5 c 1
 55.6602 -35.499 69.6709 5.66602 53 19 c 1
 35.6709 7.33203 52.667 -52.833 22.0029 -61.501 c 1
 2.66699 -58.167 1.99512 -28.167 0 -13.4883 c 2
 -10 89.333 l 1
 -10.6367 104.965 -16.1904 123.223 -1.1748 130.5 c 1
 14 127.333 10.667 74.5 22.1562 65 c 1
 36.667 74.5 27.502 151.498 50 151.5 c 0
 70.835 151.498 66.6768 94.5 78.5 89 c 1
 92.6768 97.167 87.0059 159.328 106.167 158.997 c 0
 125.673 159.328 114.489 118 131.5 113 c 1
 134.849 113.609 145.541 139.116 140.496 158.67 c 0
EndSplineSet
EndChar

StartChar: _0021
Encoding: 59 -1 59
Width: 164
VWidth: 2048
Flags: HW
Validated: 33
HStem: -409 15 -94 15 221 15 536 15
Fore
58.5 163.504 m 1
 110.666 123.337 151 86.3333 163.999 69.0176 c 1
 158.667 42.6667 117.333 0 90.0186 -22.6611 c 0
 78.4298 -32.2755 38.0059 -60.667 8.66699 -62.0029 c 1
 -6.66113 -58.667 0.00585938 -55.334 9.33105 -49.335 c 1
 52.0059 -36.001 71.3311 -2.99414 70.6709 3.33008 c 1
 62.3311 15.3389 26.666 40.6729 0 56.6709 c 5
 5.66699 68.5049 51.333 146.337 58.5 163.504 c 1
EndSplineSet
EndChar

StartChar: _0031
Encoding: 60 -1 60
Width: 164
VWidth: 2048
Flags: HW
Validated: 33
HStem: -409 15 -94 15 221 15 536 15
Fore
77.5 192 m 1
 90.333 178.167 148 106 164 87 c 1
 142.8 49.6 127.217 15.1973 91.6094 -20.3965 c 1
 77.2168 -37.6035 28.8 -49.6 9.99512 -48.666 c 1
 3.34201 -48.503 -3.69077 -48.4444 5.19531 -43.999 c 1
 25.9062 -32.6585 52.7103 -24.447 59.5815 -6 c 1
 35.0878 20.9024 7.55616 58.5906 0 80 c 5
 6.66699 103.833 62.873 177.667 77.5 192 c 1
EndSplineSet
EndChar

StartChar: _0022
Encoding: 61 -1 61
Width: 164
VWidth: 2048
Flags: HW
HStem: -409 15 -94 15 221 15 536 15
Fore
119 -47 m 1
 115 -47 114 -45.7998 114 -11 c 2
 114 216 l 1
 101.333 227.333 84.667 233 64 233 c 0
 34 233 13.333 226.333 0 213 c 1
 0 334 l 2
 0 358.667 20.5 371 63.5 371 c 0
 106.5 371 128 358.667 128 334 c 2
 128 -31 l 2
 128 -39.667 125 -45 119 -47 c 1
EndSplineSet
EndChar

StartChar: _0014
Encoding: 62 -1 62
Width: 27
VWidth: 2048
Flags: HW
HStem: -219.133 9 -30.1332 9 158.867 9 347.867 9
Fore
27.5 -83 m 4
 13.6396 -83 0 -71.3623 0 -55.5 c 4
 0 -39.6113 13.6328 -28 27.5 -28 c 4
 41.3604 -28 55 -39.6377 55 -55.5 c 4
 55 -71.3887 41.3672 -83 27.5 -83 c 4
EndSplineSet
EndChar

StartChar: _0015
Encoding: 63 -1 63
Width: 61
VWidth: 2048
Flags: HW
Validated: 33
HStem: -409 15 -94 15 221 15 536 15
Fore
0 373 m 24
 -0.263672 390.228 13.4404 404.862 30.6699 404.798 c 24
 47.8721 404.733 60.7363 389.972 61 372.771 c 24
 61.2646 355.504 48.6699 339.598 31.668 339.599 c 0
 12.8691 339.599 0.274414 355.052 0 373 c 24
0 67.5645 m 28
 -0.263672 84.792 13.4404 99.4268 30.6699 99.3623 c 28
 47.8721 99.2979 60.7363 84.5361 61 67.3359 c 28
 61.2646 50.0684 48.6699 34.1621 31.668 34.1631 c 4
 12.8691 34.1631 0.274414 49.6162 0 67.5645 c 28
EndSplineSet
EndChar

StartChar: _0033
Encoding: 64 -1 64
Width: 40
VWidth: 2048
Flags: HW
HStem: -409 15 -94 15 221 15 536 15
Fore
0 430 m 5
 19 430 l 5
 19 336 l 5
 0 336 l 5
 0 430 l 5
EndSplineSet
EndChar

StartChar: _0013
Encoding: 65 -1 65
Width: 110
VWidth: 2048
Flags: HW
Validated: 33
HStem: -409 15 -94 15 221 15 536 15
Fore
110 119 m 1
 110 16 l 1
 100 24.3333 82.6665 27.9905 55.667 28.335 c 0
 29.6667 28.6667 7 24 0 16 c 1
 0 119 l 17
 10 124 32.5 127 54.0039 127 c 4
 73.184 127 98.5 125.75 110 119 c 1
EndSplineSet
EndChar

StartChar: hepisemus_base
Encoding: 66 -1 66
Width: 1
VWidth: 2048
Flags: HW
HStem: -409 15 -94 15 221 15 536 15
Fore
0 64 m 25
 0 89.1807 l 29
 1 89.1807 l 29
 1 64 l 25
 0 64 l 25
EndSplineSet
EndChar

StartChar: _4097
Encoding: 67 -1 67
Width: 164
VWidth: 2048
Flags: HW
Validated: 33
HStem: -409 15 -94 15 221 15 536 15
Fore
0 -10.0078 m 1
 0 126.332 l 1
 66.126 106.494 123.654 117.841 142 132 c 1
 142 149 l 1
 137.5 161 112 176 76 176 c 0
 46.5 176 15 171.156 0 160.5 c 1
 0 304 l 1
 20 315 49.417 320 82 320 c 0
 114.583 320 151 312 164 299 c 1
 164 -6 l 1
 153 -16 131.5 -22.5 96.5 -22.5 c 0
 60.5 -22.5 16.0068 -16.5 0 -10.0078 c 1
EndSplineSet
EndChar

StartChar: _0062
Encoding: 68 -1 68
Width: 85
VWidth: 2048
Flags: HWO
HStem: 854.5 15 539.5 15 224.5 15 -90.5 15
Fore
64 -41 m 5
 39.8096 -37.2783 8.00098 -28.4639 8.00098 -2.99902 c 6
 8.00098 135.001 l 5
 21.6445 122.597 29.7412 119.001 52.001 119.001 c 5
 52.001 371.001 l 6
 52.001 385.668 54.001 393.001 58.001 393.001 c 4
 58.2627 393.024 58.5176 393.036 58.7656 393.036 c 4
 63.2969 393.036 65.5625 389.071 65.5625 381.141 c 4
 65.5625 377.339 65.042 372.625 64 367 c 5
 64 -41 l 5
EndSplineSet
EndChar

StartChar: _0065
Encoding: 69 -1 69
Width: 85
VWidth: 2048
Flags: HW
HStem: -409 15 -94 15 221 15 536 15
Fore
52 719 m 5
 29.9268 719 21.5566 716.557 8 703 c 5
 8 841 l 6
 8 863.8 34.501 875.596 64 879 c 5
 64 471 l 6
 64 458.333 61.667 450 57 446 c 5
 53.667 446 52 451.333 52 462 c 6
 52 719 l 5
EndSplineSet
EndChar

StartChar: _0039
Encoding: 70 -1 70
Width: 99
VWidth: 1594
Flags: W
Validated: 1
HStem: -652.764 23.94 -150.024 23.94 352.716 23.94 855.456 23.94
Fore
22.3555 -69.8779 m 4
 9.58691 -69.8779 0.0117188 -57.1094 0.0117188 -45.9365 c 4
 0.0117188 -42.7461 0.0117188 -37.958 3.2041 -34.7656 c 5
 46.2949 56.207 l 6
 51.083 64.1865 60.6602 70.5713 71.8311 70.5713 c 4
 87.792 70.5713 98.9629 56.207 98.9629 41.8418 c 4
 98.9629 37.0547 98.9629 32.2666 95.7705 29.0742 c 5
 43.1035 -57.1094 l 5
 39.9111 -65.0898 31.9316 -69.8779 22.3555 -69.8779 c 4
EndSplineSet
EndChar

StartChar: _0069
Encoding: 71 -1 71
Width: 99
VWidth: 1594
Flags: W
Validated: 1
HStem: -652.764 23.94 -150.024 23.94 352.716 23.94 855.456 23.94
Fore
0.0595703 46.2236 m 4
 0.0595703 57.3965 9.63477 70.165 22.4033 70.165 c 4
 31.9795 70.165 39.959 65.377 43.1514 57.3965 c 5
 95.8184 -28.7871 l 5
 99.0107 -31.9795 99.0107 -36.7676 99.0107 -41.5547 c 4
 99.0107 -55.9199 87.8398 -70.2842 71.8789 -70.2842 c 4
 60.708 -70.2842 51.1309 -63.8994 46.3428 -55.9199 c 6
 3.25195 35.0527 l 5
 0.0595703 38.2451 0.0595703 43.0332 0.0595703 46.2236 c 4
EndSplineSet
EndChar

StartChar: _0070
Encoding: 72 -1 72
Width: 125
VWidth: 1583
Flags: W
Validated: 1
HStem: -664.386 23.94 -161.646 23.94 341.094 23.94 843.834 23.94
Fore
95.7607 -11.6357 m 1
 95.7607 7.51758 81.3955 21.8809 62.2441 21.8809 c 0
 43.0928 21.8809 28.7275 7.51758 28.7275 -11.6357 c 1
 0 -11.6357 l 1
 0 23.4766 27.1318 50.6104 62.2441 50.6104 c 0
 97.3564 50.6104 124.488 23.4766 124.488 -11.6357 c 1
 95.7607 -11.6357 l 1
EndSplineSet
EndChar

StartChar: _0038
Encoding: 73 -1 73
Width: 124
VWidth: 1606
Flags: W
Validated: 1
HStem: -641.142 23.94 -138.402 23.94 364.338 23.94 867.078 23.94
Fore
95.5166 11.623 m 1
 124.244 11.623 l 1
 124.244 -23.4893 97.1123 -50.623 62 -50.623 c 0
 26.8877 -50.623 -0.244141 -23.4893 -0.244141 11.623 c 1
 28.4834 11.623 l 1
 28.4834 -7.53027 42.8486 -21.8936 62 -21.8936 c 0
 81.1514 -21.8936 95.5166 -7.53027 95.5166 11.623 c 1
EndSplineSet
EndChar

StartChar: _0037
Encoding: 74 -1 74
Width: 124
VWidth: 1594
Flags: W
Validated: 1
HStem: -652.764 23.94 -150.024 23.94 352.716 23.94 855.456 23.94
Fore
62 -33.5166 m 0
 79.5557 -33.5166 95.5166 -19.1514 95.5166 0 c 0
 95.5166 17.5557 81.1514 33.5166 62 33.5166 c 0
 44.4443 33.5166 28.4834 19.1514 28.4834 0 c 0
 28.4834 -17.5557 42.8486 -33.5166 62 -33.5166 c 0
62 62.2441 m 0
 95.5166 62.2441 124.244 36.708 124.244 0 c 0
 124.244 -33.5166 98.708 -62.2441 62 -62.2441 c 0
 28.4834 -62.2441 -0.244141 -36.708 -0.244141 0 c 0
 -0.244141 33.5166 25.292 62.2441 62 62.2441 c 0
EndSplineSet
EndChar

StartChar: _0003
Encoding: 75 -1 75
Width: 140
VWidth: 2048
Flags: HW
HStem: -409 15 -94 15 221 15 536 15
Fore
83 79 m 4
 33.2002 79 0 113.8 0 166 c 6
 0 417 l 6
 0 469.479 32.9502 503 83 503 c 4
 119 503 128 476.6 128 459 c 6
 128 321 l 5
 120 328 l 6
 106.964 339.406 85.1416 350 63 350 c 4
 33.1074 350 8 324.946 8 292 c 4
 8 259.091 33.1621 233 63 233 c 4
 85.7998 233 107.173 242.775 120 254 c 6
 128 262 l 5
 128 123 l 6
 128 96.5996 110 79 83 79 c 4
EndSplineSet
EndChar

StartChar: _0004
Encoding: 76 -1 76
Width: 321
VWidth: 2048
Flags: HW
HStem: -409 15 -94 15 221 15 536 15
Fore
206 340 m 4
 158.268 340 125.999 374.026 125.999 424 c 6
 125.999 661 l 6
 125.999 711.098 158.265 744 205.999 744 c 4
 233.093 744 247.999 728.992 247.999 703 c 6
 247.999 571 l 5
 235.471 581.738 217.359 598 188 598 c 4
 155.6 598 134 572.15 134 543.5 c 4
 134 514.288 155.444 487 188 487 c 4
 224.201 487 247.994 513.997 248 514 c 5
 248 382 l 6
 248 356.569 232.028 340 206 340 c 4
102.999 317 m 4
 99.999 317 97.999 318.1 97.999 325 c 6
 97.999 471 l 5
 87.332 481.667 72.666 487 53.999 487 c 4
 31.332 487 13.332 482 -0.000976562 472 c 5
 -0.000976562 584 l 6
 -0.000976562 607.333 18.166 619 54.499 619 c 4
 90.832 619 108.999 607.333 108.999 584 c 6
 108.999 336 l 6
 108.999 324 106.999 317.667 102.999 317 c 4
EndSplineSet
EndChar

StartChar: _0016
Encoding: 77 -1 77
Width: 108
VWidth: 2048
Flags: W
Validated: 33
HStem: -409 15 -94 15 221 15 536 15
Fore
0 -14 m 9
 37 76 l 17
 40.6667 82.3333 45.2422 87.001 54.0029 87 c 0
 63 86.999 68 82 71 76 c 13
 108 -16 l 17
 108 -21.1426 103.333 -22.333 99.002 -23.5 c 0
 90.8721 -25.6895 82.8571 -23.1429 80 -18 c 9
 54 40.999 l 25
 54 40.999 30.6667 -12 28 -18 c 1
 23.166 -24.5 16.5 -25.5 9 -23.5 c 0
 4.59668 -22.3252 0 -18.6667 0 -14 c 9
EndSplineSet
EndChar

StartChar: _0034
Encoding: 78 -1 78
Width: 164
VWidth: 2048
Flags: HW
HStem: 517 15 202 15 -113 15 -428 15
Fore
64 215 m 0
 40.1475 215 19 195.4 19 168.5 c 0
 19 141.649 40.1455 121 64 121 c 0
 92.2002 121 111 143.525 111 168.5 c 0
 111 194.06 92.1387 215 64 215 c 0
63.5 246 m 0
 106.5 246 128 233.667 128 209 c 2
 128 88 l 1
 114 102 92.667 109 64 109 c 0
 34.667 109 14 102 0 88 c 1
 0 209 l 2
 0 233.667 20.5 246 63.5 246 c 0
EndSplineSet
EndChar

StartChar: _0035
Encoding: 79 -1 79
Width: 266
VWidth: 2048
Flags: HW
Validated: 1
HStem: -409 15 -94 15 221 15 536 15
Fore
266.006 -10.6602 m 6
 266.006 -16.3604 258.371 -20.6602 252.672 -20.6602 c 4
 246.972 -20.6602 240.672 -14.7061 240.672 -9.00586 c 6
 240.818 170.681 l 6
 240.818 176.381 247.639 181.341 253.339 181.341 c 4
 259.038 181.341 265.913 174.727 265.913 169.026 c 6
 266.006 -10.6602 l 6
25.334 -9.33398 m 2
 25.334 -15.0342 17.6992 -19.334 12 -19.334 c 0
 6.2998 -19.334 0 -13.3799 0 -7.67969 c 2
 0.146484 172.007 l 2
 0.146484 177.707 6.9668 182.667 12.667 182.667 c 0
 18.3662 182.667 25.2412 176.053 25.2412 170.353 c 2
 25.334 -9.33398 l 2
132.671 170 m 24
 165.254 170 194.671 162 214.671 154 c 9
 214.671 91.5996 214.671 -6 214.671 -6 c 0
 199.671 4.95801 168.671 13 132.671 13 c 0
 97.6709 13 65.6709 4.65625 50.6709 -6 c 1
 50.6709 36 50.6709 154 50.6709 154 c 0
 70.6709 165 100.088 170 132.671 170 c 24
EndSplineSet
EndChar

StartChar: _0036
Encoding: 80 -1 80
Width: 266
VWidth: 2048
Flags: HW
HStem: -409 15 -94 15 221 15 536 15
Fore
64 215 m 0
 40.1475 215 19 195.4 19 168.5 c 0
 19 141.649 40.1455 121 64 121 c 0
 92.2002 121 111 143.525 111 168.5 c 0
 111 194.06 92.1387 215 64 215 c 0
63.5 246 m 0
 106.5 246 128 233.667 128 209 c 2
 128 88 l 1
 114 102 92.667 109 64 109 c 0
 34.667 109 14 102 0 88 c 1
 0 209 l 2
 0 233.667 20.5 246 63.5 246 c 0
EndSplineSet
EndChar

StartChar: _0066
Encoding: 81 -1 81
Width: 706
VWidth: 2048
Flags: HW
Validated: 33
HStem: -409 15 -94 15 221 15 536 15
Fore
206.925 -69.6523 m 0
 161.616 -52.828 204.018 61.5556 278.334 216 c 1
 199 216 l 1
 153 99 l 2
 148 86 141.273 66.9969 141 55 c 0
 140.5 33 135 17.5 156.5 14.5 c 1
 164.402 11.6777 161.846 5.29199 162.5 0 c 1
 15 0 l 1
 13.9604 4.33336 12.9571 8.66665 16 13 c 1
 64 15 76.7685 36.0978 139 183 c 2
 347 674 l 2
 351.75 684.75 361 685.25 367 674 c 2
 433.766 521.699 l 1
 473.572 604.556 505.803 684.391 520.25 761.5 c 0
 522.627 774.187 482.324 770.2 462.25 777.5 c 0
 440.25 785.5 434.25 795.5 434.25 819.5 c 0
 434.25 837.617 438.25 861.5 470.25 867.5 c 0
 489.027 871.021 521.518 859.958 534.25 845.5 c 0
 593.773 777.906 537.503 625.969 457.881 466.689 c 1
 616 106 l 2
 651 32 655.5 17.5 700.5 14.5 c 1
 705.99 10.6148 705.38 5.14805 706 0 c 1
 451 0 l 1
 451.189 5 449.733 10 455 15 c 1
 508 16 521 28 521 53 c 0
 521 67 514 93 502 120 c 2
 461 216 l 1
 323.905 216 l 1
 289.063 151.294 259.44 93.3475 243.25 49 c 0
 220.25 -14 230.5 -14.074 252.251 -24.665 c 0
 277.583 -36.9998 331.25 -47.667 326.91 -59.9971 c 1
 293.25 -90.333 224.917 -76.333 206.925 -69.6523 c 0
402.965 361.394 m 1
 346.145 257 l 1
 447 257 l 1
 402.965 361.394 l 1
380.198 415.368 m 1
 331 532 l 1
 216 257 l 1
 298.447 257 l 1
 380.198 415.368 l 1
EndSplineSet
EndChar

StartChar: _0067
Encoding: 82 -1 82
Width: 659
VWidth: 2048
Flags: HW
Validated: 33
HStem: -409 15 -94 15 221 15 536 15
Fore
204 343 m 1
 352 346 438 371 438 488 c 0
 438 582 380 625 255 625 c 0
 215 625 204 617 204 589 c 2
 204 343 l 1
448.323 64.2877 m 1
 380.187 -75.4231 404.904 -72.5686 425.326 -82.5127 c 0
 450.658 -94.8475 504.325 -105.515 499.985 -117.845 c 1
 466.325 -148.181 397.992 -134.181 380 -127.5 c 0
 354.766 -118.13 358.402 -71.1455 370.575 -35.3477 c 0
 385.847 9.56305 403.686 53.6783 423.023 97.0292 c 1
 260 308 l 1
 204 306 l 1
 204 109 l 2
 204 37 217 24 294 19 c 1
 294 0 l 1
 17 0 l 1
 17 19 l 1
 92 25 102 37 102 120 c 2
 102 553 l 2
 102 624 92 635 17 643 c 1
 17 662 l 1
 293 662 l 2
 391 662 547 636 547 486 c 0
 547 348 407 327 366 319 c 1
 468.51 193.102 l 1
 559.578 376.411 663.74 545.749 693.325 703.652 c 0
 695.702 716.339 655.399 712.353 635.325 719.652 c 0
 613.325 727.652 607.325 737.652 607.325 761.652 c 0
 607.325 833.514 687.368 810.316 707.325 787.652 c 0
 798.767 683.811 616.932 380.917 496.975 158.143 c 1
 572 66 l 2
 601 32 621 22 659 19 c 1
 659 0 l 1
 498 0 l 1
 448.323 64.2877 l 1
EndSplineSet
EndChar

StartChar: _0068
Encoding: 83 -1 83
Width: 697
VWidth: 2048
Flags: HW
Validated: 33
HStem: -409 15 -94 15 221 15 536 15
Fore
106.675 -75.1523 m 0
 81.4404 -65.7822 85.0773 -18.7979 97.25 17 c 0
 131.323 117.203 178.181 213.446 225.923 306.074 c 1
 122 538 l 2
 81.7268 627.878 70.999 645.667 21.999 647.667 c 1
 15.9766 649.238 16.0303 656.23 16 662 c 1
 255 662 l 1
 254.808 657.354 256.182 652.474 250.337 648.667 c 1
 237 648 221.674 643.333 217.674 641.333 c 0
 208.312 636.651 207 629 207 610 c 0
 207 595 215.323 572.145 248 499 c 2
 284.176 418.022 l 1
 345.526 536.473 399.928 648.868 420 756 c 0
 422.377 768.687 382.074 764.7 362 772 c 0
 340 780 334 790 334 814 c 0
 334 885.868 414.048 862.658 434 840 c 0
 505.439 758.874 410.082 556.255 307.746 365.265 c 1
 399 161 l 1
 546 528 l 2
 558 558 565 585 565 601 c 0
 565 629 547 640 492 643 c 1
 492 662 l 1
 697 662 l 1
 697 643 l 1
 649 640 637 630 605 550 c 2
 383 -11 l 1
 368 -11 l 1
 248.356 256.011 l 1
 203.109 173.094 162.904 98.0199 143 43.5 c 0
 120 -19.5 130.25 -19.5741 152.001 -30.165 c 0
 177.333 -42.4998 231 -53.167 226.66 -65.4971 c 1
 193 -95.833 124.667 -81.833 106.675 -75.1523 c 0
EndSplineSet
EndChar

StartChar: letterbar
Encoding: 84 -1 84
Width: 388
VWidth: 2048
Flags: HW
Validated: 33
HStem: -409 15 -94 15 221 15 536 15
Fore
20.6748 -70.1523 m 0
 -4.55957 -60.7822 -0.922852 -13.7979 11.25 22 c 0
 104.25 295.5 292.5 539.5 334 761 c 0
 336.377 773.687 296.074 769.7 276 777 c 0
 254 785 248 795 248 819 c 0
 248 837.117 252 861 284 867 c 0
 302.777 870.521 335.269 859.458 348 845 c 0
 466 711 128.932 245.53 57 48.5 c 0
 34 -14.5 44.25 -14.5742 66.001 -25.165 c 0
 91.333 -37.5 145 -48.167 140.66 -60.4971 c 1
 107 -90.833 38.667 -76.833 20.6748 -70.1523 c 0
EndSplineSet
EndChar

